<?xml version="1.0" standalone="no"?><!DOCTYPE svg PUBLIC "-//W3C//DTD SVG 1.1//EN" "http://www.w3.org/Graphics/SVG/1.1/DTD/svg11.dtd"><svg t="1547739666640" class="icon" style="" viewBox="0 0 1024 1024" version="1.1" xmlns="http://www.w3.org/2000/svg" p-id="6303" xmlns:xlink="http://www.w3.org/1999/xlink" width="200" height="200"><defs><style type="text/css"></style></defs><path d="M125.313 72.613c-9.707 0-17.576 7.869-17.576 17.576v843.624c0 9.705 7.869 17.576 17.576 17.576s17.576-7.87 17.576-17.576V90.188c-0.001-9.707-7.869-17.575-17.576-17.575z" p-id="6304" fill="#ffffff"></path><path d="M880.908 72.755c-5.865 0-11.883 1.489-17.56 4.752L160.503 481.622c-23.486 13.502-23.486 47.259 0 60.75l702.846 404.12c5.675 3.263 11.696 4.752 17.559 4.752 18.401 0 35.278-14.655 35.278-35.131V107.886c0-20.476-16.878-35.131-35.278-35.131z m3.278 843.358c0 2.898-3.245 3.132-3.278 3.132-0.322 0-0.839-0.051-1.609-0.494L176.442 514.624c-0.504-0.29-1.553-0.892-1.554-2.623 0-1.738 1.056-2.345 1.565-2.638L879.297 105.25c0.77-0.443 1.288-0.494 1.611-0.494 0.033 0 3.278 0.233 3.278 3.131v808.226z" p-id="6305" fill="#ffffff"></path></svg>