<?xml version="1.0" standalone="no"?><!DOCTYPE svg PUBLIC "-//W3C//DTD SVG 1.1//EN" "http://www.w3.org/Graphics/SVG/1.1/DTD/svg11.dtd"><svg t="1547739753549" class="icon" style="" viewBox="0 0 1024 1024" version="1.1" xmlns="http://www.w3.org/2000/svg" p-id="1613" xmlns:xlink="http://www.w3.org/1999/xlink" width="200" height="200"><defs><style type="text/css"></style></defs><path d="M898.61 72.613c9.707 0 17.576 7.869 17.576 17.576v843.624c0 9.705-7.869 17.576-17.576 17.576s-17.576-7.87-17.576-17.576V90.188c0.001-9.707 7.869-17.575 17.576-17.575z" p-id="1614" fill="#ffffff"></path><path d="M107.737 107.886v808.227c0 20.477 16.877 35.131 35.278 35.131 5.863 0 11.884-1.489 17.559-4.752l702.846-404.12c23.486-13.491 23.486-47.248 0-60.75L160.575 77.507c-5.677-3.263-11.695-4.752-17.56-4.752-18.399 0-35.278 14.655-35.278 35.131z m32 0c0-2.898 3.245-3.131 3.278-3.131 0.323 0 0.84 0.051 1.611 0.494L847.47 509.364c0.509 0.293 1.565 0.9 1.565 2.638 0 1.73-1.049 2.333-1.554 2.623L144.624 918.751c-0.77 0.442-1.287 0.494-1.609 0.494-0.033 0-3.278-0.233-3.278-3.132V107.886z" p-id="1615" fill="#ffffff"></path></svg>