<?xml version="1.0" standalone="no"?><!DOCTYPE svg PUBLIC "-//W3C//DTD SVG 1.1//EN" "http://www.w3.org/Graphics/SVG/1.1/DTD/svg11.dtd"><svg t="1547771977938" class="icon" style="" viewBox="0 0 1026 1024" version="1.1" xmlns="http://www.w3.org/2000/svg" p-id="1983" xmlns:xlink="http://www.w3.org/1999/xlink" width="200.390625" height="200"><defs><style type="text/css"></style></defs><path d="M843.52164 661.237133c-67.96905 0-126.362115 41.558414-153.420237 101.178295l-372.168461-144.593973c21.724878-29.290247 35.151705-65.583573 35.151704-105.165449 0-39.786345-13.631296-76.113749-35.458408-105.506231l368.317619-155.004876c24.877115 64.629382 85.962361 110.652046 157.577783 110.652046 93.561808 0 169.726675-78.379952 169.726675-174.582824 0-96.185833-76.164867-174.565785-169.726675-174.565786-93.493652 0-169.709636 78.379952-169.709636 174.565786 0 8.758108 1.34609 17.158394 2.504751 25.524601l-386.362048 164.22304c-29.23913-24.519294-65.992512-39.871541-106.613775-39.871541-93.595887 0-169.709636 78.362913-169.709636 174.565785 0 96.185833 76.113749 174.599864 169.709636 174.599864 40.706458 0 77.493918-15.386325 106.750088-39.990815l387.657021 151.852638a179.643443 179.643443 0 0 0-3.936037 36.702265c0 96.202872 76.215984 174.565785 169.709636 174.565785 93.561808 0 169.726675-78.379952 169.726675-174.565785s-76.164867-174.582824-169.726675-174.582825m0-608.8248c72.80816 0 132.036142 60.948933 132.036142 135.784748 0 74.869894-59.227981 135.784748-132.036142 135.784748-72.774082 0-131.950946-60.914854-131.950946-135.784748 0-74.835815 59.176864-135.784748 131.950946-135.784748M183.340932 648.423715c-72.757043 0-131.985024-60.897815-131.985024-135.784748s59.227981-135.767709 131.985024-135.767709c72.825199 0 132.002063 60.880776 132.002063 135.767709s-59.176864 135.784748-132.002063 135.784748m660.180708 323.112834c-72.774082 0-131.950946-60.79558-131.950946-135.73363s59.193903-135.767709 131.950946-135.767709c72.80816 0 132.036142 60.829659 132.036142 135.767709s-59.227981 135.733631-132.036142 135.73363" fill="#ffffff" p-id="1984"></path></svg>