<?xml version="1.0" standalone="no"?><!DOCTYPE svg PUBLIC "-//W3C//DTD SVG 1.1//EN" "http://www.w3.org/Graphics/SVG/1.1/DTD/svg11.dtd"><svg t="1547739599426" class="icon" style="" viewBox="0 0 1336 1024" version="1.1" xmlns="http://www.w3.org/2000/svg" p-id="5475" xmlns:xlink="http://www.w3.org/1999/xlink" width="260.9375" height="200"><defs><style type="text/css"></style></defs><path d="M824.888889 113.863111A28.814222 28.814222 0 0 0 822.528 113.777778H455.139556C203.662222 113.777778 0 317.496889 0 568.888889c0 251.392 203.776 455.111111 455.168 455.111111h454.997333c181.959111 0 344.206222-107.747556 416.512-271.303111a28.444444 28.444444 0 1 0-52.053333-22.983111A398.336 398.336 0 0 1 910.193778 967.111111H455.168C235.178667 967.111111 56.888889 788.849778 56.888889 568.888889 56.888889 348.899556 235.093333 170.666667 455.111111 170.666667h367.416889c0.796444 0 1.592889-0.028444 2.360889-0.085334v54.584889c0 31.544889 18.773333 39.964444 41.955555 18.887111l92.16-83.797333a25.116444 25.116444 0 0 0 0-38.030222l-92.16-83.825778C843.889778 17.521778 824.888889 25.799111 824.888889 57.287111v56.604445z" p-id="5476" fill="#ffffff"></path></svg>