<?xml version="1.0" standalone="no"?><!DOCTYPE svg PUBLIC "-//W3C//DTD SVG 1.1//EN" "http://www.w3.org/Graphics/SVG/1.1/DTD/svg11.dtd"><svg t="1547739821278" class="icon" style="" viewBox="0 0 1024 1024" version="1.1" xmlns="http://www.w3.org/2000/svg" p-id="2623" xmlns:xlink="http://www.w3.org/1999/xlink" width="200" height="200"><defs><style type="text/css"></style></defs><path d="M511.662 64.202c-246.987 0-447.925 200.938-447.925 447.925s200.938 447.925 447.925 447.925 447.925-200.938 447.925-447.925S758.649 64.202 511.662 64.202z m0 855.13c-224.539 0-407.205-182.685-407.205-407.205 0-224.539 182.666-407.205 407.205-407.205 224.519 0 407.205 182.666 407.205 407.205 0 224.52-182.686 407.205-407.205 407.205z" fill="#ffffff" p-id="2624"></path><path d="M676.894 472.337L454.901 335.358c-38.566-23.273-69.826-5.568-69.826 39.541v265.52c0 45.112 31.65 63.755 70.693 41.646l220.26-127.559c38.796-21.97 39.43-58.897 0.866-82.169z" fill="#ffffff" p-id="2625"></path></svg>