<?xml version="1.0" standalone="no"?><!DOCTYPE svg PUBLIC "-//W3C//DTD SVG 1.1//EN" "http://www.w3.org/Graphics/SVG/1.1/DTD/svg11.dtd"><svg t="1547774223053" class="icon" style="" viewBox="0 0 1024 1024" version="1.1" xmlns="http://www.w3.org/2000/svg" p-id="9294" xmlns:xlink="http://www.w3.org/1999/xlink" width="200" height="200"><defs><style type="text/css"></style></defs><path d="M400.320455 176.969551c0-61.574381 50.105165-111.679545 111.679545-111.679546 61.568241 0 111.679545 50.105165 111.679545 111.679546 0 61.568241-50.111305 111.679545-111.679545 111.679545-61.574381 0-111.679545-50.111305-111.679545-111.679545z m0 0M400.320455 512c0-61.568241 50.105165-111.679545 111.679545-111.679545 61.568241 0 111.679545 50.111305 111.679545 111.679545 0 61.574381-50.111305 111.679545-111.679545 111.679545-61.574381-0.001023-111.679545-50.106188-111.679545-111.679545z m0 0M400.320455 847.037612c0-61.574381 50.105165-111.679545 111.679545-111.679545 61.568241 0 111.679545 50.105165 111.679545 111.679545 0 61.566194-50.111305 111.672382-111.679545 111.672383-61.574381-0.001023-111.679545-50.106188-111.679545-111.672383z m0 0" p-id="9295" fill="#ffffff"></path></svg>