<?xml version="1.0" standalone="no"?><!DOCTYPE svg PUBLIC "-//W3C//DTD SVG 1.1//EN" "http://www.w3.org/Graphics/SVG/1.1/DTD/svg11.dtd"><svg t="1547774201487" class="icon" style="" viewBox="0 0 1024 1024" version="1.1" xmlns="http://www.w3.org/2000/svg" p-id="8516" xmlns:xlink="http://www.w3.org/1999/xlink" width="200" height="200"><defs><style type="text/css"></style></defs><path d="M64 960V192c0-70.4 57.6-128 128-128h633.6c70.4 0 128 57.6 128 128l6.4 467.2c0 32-12.8 64-38.4 89.6-25.6 25.6-57.6 38.4-89.6 38.4H416L64 960zM192 128c-38.4 0-64 25.6-64 64v665.6l275.2-134.4H832c19.2 0 32-6.4 44.8-19.2s19.2-25.6 19.2-44.8L889.6 192c0-32-32-64-64-64H192z" fill="#ffffff" p-id="8517"></path><path d="M294.4 288h243.2v64H294.4zM294.4 480h352v64H294.4z" fill="#ffffff" p-id="8518"></path></svg>