<?xml version="1.0" standalone="no"?><!DOCTYPE svg PUBLIC "-//W3C//DTD SVG 1.1//EN" "http://www.w3.org/Graphics/SVG/1.1/DTD/svg11.dtd"><svg t="1547771924304" class="icon" style="" viewBox="0 0 1024 1024" version="1.1" xmlns="http://www.w3.org/2000/svg" p-id="1006" xmlns:xlink="http://www.w3.org/1999/xlink" width="200" height="200"><defs><style type="text/css"></style></defs><path d="M60.7488 511.232c0-0.64 0.33792-1.16736 0.36864-1.80224 0.256-8.98048 3.4304-17.89952 10.35264-24.7552 1.26464-1.24928 2.8928-1.78176 4.28032-2.816l334.98624-331.71968c14.4128-14.26944 37.7856-14.26944 52.19328 0a36.3008 36.3008 0 0 1 0 51.6864L188.02176 474.0608h736.06656c20.73088 0 37.53472 16.64 37.53472 37.1712s-16.80384 37.1712-37.53472 37.1712H188.02176l274.90816 272.2304a36.29568 36.29568 0 0 1 0 51.69152c-14.4128 14.26944-37.78048 14.26944-52.19328 0l-334.98624-331.71968c-1.3824-1.03424-3.0208-1.56672-4.28032-2.816-6.92224-6.8608-10.09152-15.77472-10.35264-24.7552-0.03072-0.62976-0.36864-1.16224-0.36864-1.80224z" fill="#ffffff" p-id="1007"></path></svg>