<?xml version="1.0" standalone="no"?><!DOCTYPE svg PUBLIC "-//W3C//DTD SVG 1.1//EN" "http://www.w3.org/Graphics/SVG/1.1/DTD/svg11.dtd"><svg t="1547774121681" class="icon" style="" viewBox="0 0 1024 1024" version="1.1" xmlns="http://www.w3.org/2000/svg" p-id="5761" xmlns:xlink="http://www.w3.org/1999/xlink" width="200" height="200"><defs><style type="text/css"></style></defs><path d="M686.08 633.173333v-443.733333l209.578667-68.266667a27.306667 27.306667 0 0 0-17.066667-51.882666l-228.352 75.093333a27.306667 27.306667 0 0 0-18.773333 25.941333v341.333334a178.517333 178.517333 0 1 0 54.954666 128.341333s-0.341333-5.461333-0.341333-6.826667z m-178.517333 128.341334a124.586667 124.586667 0 1 1 124.586666-124.586667 124.586667 124.586667 0 0 1-124.586666 124.586667zM332.117333 474.112a27.306667 27.306667 0 0 0-27.989333-47.104 181.589333 181.589333 0 0 0-88.064 154.965333 174.762667 174.762667 0 0 0 11.605333 63.829334 27.648 27.648 0 0 0 25.6 17.749333 31.402667 31.402667 0 0 0 9.557334-1.706667 27.306667 27.306667 0 0 0 16.042666-34.133333 125.610667 125.610667 0 0 1 53.248-152.576zM231.765333 371.712a27.306667 27.306667 0 0 0 9.216-37.546667A26.624 26.624 0 0 0 204.8 324.949333a284.672 284.672 0 0 0-138.581333 243.370667 279.552 279.552 0 0 0 18.432 100.352 26.965333 26.965333 0 0 0 25.258666 17.749333 25.6 25.6 0 0 0 9.898667-2.048 26.965333 26.965333 0 0 0 15.701333-34.133333 229.034667 229.034667 0 0 1 97.28-277.504zM796.330667 634.88a27.306667 27.306667 0 0 0-51.2 19.456 121.856 121.856 0 0 1 8.192 44.373333 126.634667 126.634667 0 0 1-61.44 108.202667 27.648 27.648 0 0 0-9.557334 37.546667 27.306667 27.306667 0 0 0 23.552 12.970666 26.282667 26.282667 0 0 0 13.994667-3.754666 181.589333 181.589333 0 0 0 88.064-154.965334 185.344 185.344 0 0 0-11.605333-63.829333zM940.373333 612.010667a27.306667 27.306667 0 1 0-50.858666 19.456 232.448 232.448 0 0 1 14.677333 80.896 230.058667 230.058667 0 0 1-111.957333 196.608 27.306667 27.306667 0 0 0 13.994666 50.858666A29.696 29.696 0 0 0 819.2 955.733333a284.672 284.672 0 0 0 138.581333-243.712 279.552 279.552 0 0 0-17.408-100.010666z" p-id="5762" fill="#ffffff"></path></svg>