<?xml version="1.0" standalone="no"?><!DOCTYPE svg PUBLIC "-//W3C//DTD SVG 1.1//EN" "http://www.w3.org/Graphics/SVG/1.1/DTD/svg11.dtd"><svg t="1547539209420" class="icon" style="" viewBox="0 0 1024 1024" version="1.1" xmlns="http://www.w3.org/2000/svg" p-id="7861" xmlns:xlink="http://www.w3.org/1999/xlink" width="200" height="200"><defs><style type="text/css"></style></defs><path d="M494.739394 753.777778c9.567677 9.567677 25.082828 9.567677 34.521212 0l299.571717-299.571717c9.567677-9.567677 9.567677-25.082828 0-34.521213-9.567677-9.567677-24.953535-9.567677-34.521212 0L536.371717 677.494949V83.911111c0-13.446465-10.989899-24.436364-24.436363-24.436364-13.446465 0-24.436364 10.989899-24.436364 24.436364V677.494949L229.688889 419.684848c-9.567677-9.567677-25.082828-9.567677-34.521212 0-9.567677 9.567677-9.567677 25.082828 0 34.521213L494.739394 753.777778z m0 0" fill="#FF3419" p-id="7862"></path><path d="M927.482828 705.810101c-13.446465 0-24.436364 10.989899-24.436363 24.436364v152.694949c0 19.135354-15.256566 34.650505-34.004041 34.650505H154.957576c-18.747475 0-34.00404-15.515152-34.004041-34.650505V730.246465c0-13.446465-10.989899-24.436364-24.436363-24.436364-13.446465 0-24.436364 10.989899-24.436364 24.436364v171.054545c0 35.943434 29.220202 65.163636 65.163636 65.163636h749.511112c35.943434 0 65.163636-29.220202 65.163636-65.163636V730.246465c0-13.575758-10.989899-24.436364-24.436364-24.436364z m0 0" fill="#FF3419" p-id="7863"></path></svg>