<?xml version="1.0" standalone="no"?><!DOCTYPE svg PUBLIC "-//W3C//DTD SVG 1.1//EN" "http://www.w3.org/Graphics/SVG/1.1/DTD/svg11.dtd"><svg t="1547539362517" class="icon" style="" viewBox="0 0 1024 1024" version="1.1" xmlns="http://www.w3.org/2000/svg" p-id="12037" xmlns:xlink="http://www.w3.org/1999/xlink" width="200" height="200"><defs><style type="text/css"></style></defs><path d="M510.9 31.9C379 31.9 272 138.9 272 270.8s107 238.9 238.9 238.9 238.9-107 238.9-238.9S642.9 31.9 510.9 31.9z m0 436.6c-109.2 0-197.7-88.5-197.7-197.7S401.8 73.1 510.9 73.1c109.2 0 197.7 88.5 197.7 197.7s-88.5 197.7-197.7 197.7z" fill="#f34108" p-id="12038"></path><path d="M88.6 905.7c12.5-215.3 186.3-387.3 402.3-397.1 10.1-0.5 18.1-8.8 18.1-18.9v-0.5c0-10.8-9.1-19.5-19.9-19-235.4 11-424.7 198.5-438.4 433.3-0.6 10.9 8 20.1 18.9 20.1 10.1 0 18.4-7.9 19-17.9zM922.3 613.4l-68.4-11.2c-19.9-3.2-36.9-16-45.4-34.2L779 505.3c-21.6-45.8-86.4-47-109.6-2l-31.8 61.6c-9.2 17.9-26.7 30.1-46.6 32.6l-68.8 8.7c-50.3 6.4-71.4 67.6-35.7 103.6l48.8 49.3c14.1 14.3 20.4 34.6 16.6 54.4L539 881.6c-9.5 49.8 42.2 88.8 87.5 66l61.9-31.1c18-9 39.2-8.7 56.9 1l60.8 33.4c44.4 24.4 97.5-12.7 89.8-62.8l-10.5-68.5c-3-19.9 3.9-40 18.6-53.8l50.5-47.5c36.7-34.7 17.8-96.7-32.2-104.9zM689.2 863.7l-6.9 3.5c-142.3 100.7-97-16.3-87.5-66l1.4-7.6c3.8-19.8-2.4-40.1-16.6-54.4l-5.5-5.5C446.3 654.8 559.7 636.4 610 630l7.7-1c20-2.5 37.4-14.7 46.6-32.6l3.6-6.9c58.5-123.1 88-43.8 109.6 2l3.3 7c8.6 18.2 25.6 31 45.4 34.3l7.7 1.3c50 8.2 171.5 22.7 32 104.8l-5.7 5.3c-14.7 13.8-21.6 33.9-18.6 53.8l1.2 7.7c60.4 160.8-43.1 102.8-89.8 62.8l-6.8-3.7c-17.7-9.7-39-10.1-57-1.1z" fill="#f34108" p-id="12039"></path></svg>