<?xml version="1.0" standalone="no"?><!DOCTYPE svg PUBLIC "-//W3C//DTD SVG 1.1//EN" "http://www.w3.org/Graphics/SVG/1.1/DTD/svg11.dtd"><svg t="1547539130131" class="icon" style="" viewBox="0 0 1024 1024" version="1.1" xmlns="http://www.w3.org/2000/svg" p-id="6426" xmlns:xlink="http://www.w3.org/1999/xlink" width="200" height="200"><defs><style type="text/css"></style></defs><path d="M512 0C229.693793 0 0 229.693793 0 512S229.693793 1024 512 1024 1024 794.306207 1024 512 794.306207 0 512 0z m0 959.982345c-247.031172 0-448.017655-200.951172-448.017655-447.982345 0-247.031172 200.986483-447.982345 448.017655-447.982345S959.982345 264.968828 959.982345 512c0 247.031172-200.951172 447.982345-447.982345 447.982345z m222.631724-506.774069l-273.867034-148.656552a85.02731 85.02731 0 0 0-40.430345-10.840276c-39.618207 0-68.325517 30.402207-68.325517 72.280276v292.016552c0 41.878069 28.70731 72.244966 68.325517 72.280276 13.417931 0 27.400828-3.742897 40.324414-10.769655l275.350069-148.797794c24.893793-13.559172 39.194483-34.710069 39.194482-58.014896 0-23.728552-14.759724-45.409103-40.606896-59.497931z m-29.166345 61.263448l-275.350069 148.762483a20.727172 20.727172 0 0 1-9.780965 3.03669c-1.765517 0-4.343172 0-4.343173-8.262621v-292.016552c0-8.262621 2.612966-8.262621 4.343173-8.262621 1.588966 0 4.978759 0.388414 9.816276 3.03669l273.902345 148.656552c1.977379 1.094621 3.531034 2.118621 4.696275 3.036689a28.142345 28.142345 0 0 1-3.283862 2.01269z" p-id="6427" fill="#FF3419"></path></svg>