<?xml version="1.0" standalone="no"?><!DOCTYPE svg PUBLIC "-//W3C//DTD SVG 1.1//EN" "http://www.w3.org/Graphics/SVG/1.1/DTD/svg11.dtd"><svg t="1547555364599" class="icon" style="" viewBox="0 0 1024 1024" version="1.1" xmlns="http://www.w3.org/2000/svg" p-id="1022" xmlns:xlink="http://www.w3.org/1999/xlink" width="200" height="200"><defs><style type="text/css"></style></defs><path d="M511.561028 287.871868a222.738847 222.738847 0 1 0 222.738848 222.738847 222.738847 222.738847 0 0 0-222.738848-222.738847z m0 374.862096a151.903946 151.903946 0 1 1 107.970226-44.445428 152.488755 152.488755 0 0 1-107.970226 44.445428z" p-id="1023" fill="#707070"></path><path d="M957.623531 393.210456l-73.101033-11.038256a391.602233 391.602233 0 0 0-16.886338-40.863477l43.860619-59.942847a64.840616 64.840616 0 0 0 0-91.741797L835.1062 111.84458a64.840616 64.840616 0 0 0-91.741796 0l-58.992534 43.86062a391.967738 391.967738 0 0 0-41.08278-17.251844L632.104632 64.840616A64.840616 64.840616 0 0 0 567.337116 0H458.051072a64.840616 64.840616 0 0 0-64.840616 64.840616l-11.038256 72.589326a392.260143 392.260143 0 0 0-40.863477 16.886338l-60.308352-43.860619a64.840616 64.840616 0 0 0-91.741797 0L111.84458 187.723453a64.840616 64.840616 0 0 0 0 91.741796l43.86062 59.942847a391.894637 391.894637 0 0 0-16.520833 39.840063l-74.563054 9.722437A64.840616 64.840616 0 0 0 0 453.811212v109.65155a64.840616 64.840616 0 0 0 64.840616 64.840616l74.051347 11.257559a391.894637 391.894637 0 0 0 16.228429 41.155881l-45.030236 60.966262a64.840616 64.840616 0 0 0 0 91.741796l77.487094 77.487095a64.840616 64.840616 0 0 0 91.741797 0l60.600756-44.737832a392.260143 392.260143 0 0 0 39.255255 16.520833l11.33066 75.513367a64.840616 64.840616 0 0 0 64.986818 65.206122h109.651549a64.840616 64.840616 0 0 0 64.840617-64.840616l11.33066-74.27065a392.552547 392.552547 0 0 0 39.547659-16.228429l61.258665 45.030236a64.840616 64.840616 0 0 0 91.741796 0l77.487095-77.487095a64.840616 64.840616 0 0 0 0-91.741796l-43.860619-59.942847a391.967738 391.967738 0 0 0 16.886338-39.840063l74.563054-11.33066A64.840616 64.840616 0 0 0 1023.414461 567.629521v-109.65155a64.840616 64.840616 0 0 0-65.79093-64.840616z m0 174.419065h-9.722437l-74.563054 11.33066-37.939436 5.848082-12.938883 36.550517a328.954648 328.954648 0 0 1-13.962297 32.383757l-17.178743 35.307799 23.31923 32.383758 43.860619 59.942847 2.924042 3.874355 3.58195 3.58195-77.487094 78.145004-3.581951-3.58195-3.874355-2.924042-61.258665-45.030236-32.383758-23.026825-33.699576 18.129056a329.466355 329.466355 0 0 1-32.383758 13.596792l-36.989122 12.938883-6.505992 38.23184-11.33066 74.270649v9.722438H455.492536v-11.038256l-11.33066-75.513367L438.606197 834.448291l-36.550516-12.938883a328.954648 328.954648 0 0 1-32.383758-13.596792l-35.307798-16.886339-32.383758 23.026825-60.600756 44.737833-3.874355 2.924041-3.581951 3.581951-77.487095-77.487095 3.581951-3.581951 2.558536-3.874355 45.395742-61.258665 23.026825-32.383758-16.886339-35.015395a328.954648 328.954648 0 0 1-13.596792-32.383757l-12.646478-35.673304-38.597346-6.505992-74.709255-11.476862H64.840616v-111.844581h9.722438l74.563053-11.33066 38.597346-5.848082 12.938882-36.550517a328.954648 328.954648 0 0 1 13.962298-32.383757l16.886338-35.015395-23.026825-32.383758-44.445428-59.358039-1.973728-3.874354-4.166759-3.655052 77.12159-77.487095 3.58195 3.581951 3.874355 2.558536 60.308352 44.737832 32.383758 23.026825 35.015395-16.886338a328.954648 328.954648 0 0 1 34.065081-14.620207l36.989123-12.938883 5.848082-38.597345 10.014842-72.589326V64.840616h110.236357v9.722438l11.330661 73.61274 4.897769 38.23184 36.550516 12.938883a328.954648 328.954648 0 0 1 34.357486 14.620206l35.307799 17.178743 32.383757-23.319229 59.358039-43.422014 4.23986-1.973728 3.58195-3.58195 77.487095 77.487094-3.58195 3.581951-2.924042 3.874355-44.445428 59.358038-23.026825 32.383758 17.471147 33.699576a328.36984 328.36984 0 0 1 13.962297 34.065082l12.646479 36.989122 38.889749 5.848083 73.101033 11.038256h9.722438z" p-id="1024" fill="#707070"></path></svg>