<?xml version="1.0" standalone="no"?><!DOCTYPE svg PUBLIC "-//W3C//DTD SVG 1.1//EN" "http://www.w3.org/Graphics/SVG/1.1/DTD/svg11.dtd"><svg t="1547656307351" class="icon" style="" viewBox="0 0 1024 1024" version="1.1" xmlns="http://www.w3.org/2000/svg" p-id="13192" xmlns:xlink="http://www.w3.org/1999/xlink" width="200" height="200"><defs><style type="text/css"></style></defs><path d="M739.116 556.117l88.962-203.863c4.359-10.02 3.541-21.226-2.204-29.969-5.581-8.523-14.786-13.411-25.251-13.411H381.251l-6.774-30.247C369.296 255.288 346.17 237 321.829 237H214.51c-11.791 0.013-21.346 9.568-21.36 21.359 0.011 11.791 9.569 21.346 21.36 21.36h107.319c4.528 0 10.048 4.125 10.948 8.201l81.548 363.471c-26.332 10.454-44.122 36.936-44.122 65.72 0 38.538 31.352 69.89 69.89 69.89s69.894-31.352 69.894-69.89a69.503 69.503 0 0 0-4.94-25.778h144.51a69.427 69.427 0 0 0-4.943 25.778c0 38.538 31.352 69.89 69.886 69.89 38.542 0 69.897-31.352 69.897-69.89 0-38.535-31.356-69.886-69.897-69.886H457.303l-15.296-66.966h259.258c16.11 0.003 31.68-9.93 37.851-24.142z m-21.254 134.081c13.492 1.659 23.816 13.165 23.816 26.916 0 14.981-12.187 27.171-27.178 27.171-14.981 0-27.171-12.19-27.171-27.171a27.279 27.279 0 0 1 18.638-25.778c-0.001-0.004 5.853-2.037 11.895-1.138zM390.81 351.589h390.952l-81.153 185.956H432.43l-41.62-185.956z m49.279 392.696c-14.981 0-27.171-12.19-27.171-27.171 0-13.61 10.203-25.097 23.536-26.892 5.619-0.371 12.171 1.113 12.171 1.113 11.098 3.704 18.596 14.078 18.642 25.778 0.004 14.982-12.189 27.172-27.178 27.172z m0 0" p-id="13193" fill="#707070"></path></svg>