<?xml version="1.0" standalone="no"?><!DOCTYPE svg PUBLIC "-//W3C//DTD SVG 1.1//EN" "http://www.w3.org/Graphics/SVG/1.1/DTD/svg11.dtd"><svg t="1547656356178" class="icon" style="" viewBox="0 0 1024 1024" version="1.1" xmlns="http://www.w3.org/2000/svg" p-id="14042" xmlns:xlink="http://www.w3.org/1999/xlink" width="200" height="200"><defs><style type="text/css"></style></defs><path d="M919.3 772.2c-44.7-120-138.8-214.7-254-259.5 56.1-46.2 92.2-117.2 92.2-196.7 0-138.9-110.1-252-245.4-252S266.7 177.1 266.7 316c0 79.4 36 150.3 92 196.5-115.9 44.7-208.8 138.7-253.8 259.7L103 777v99c0 22.5 8.5 43.5 24 59.4 15.4 15.9 36 24.6 57.9 24.6h654.5c21.9 0 42.4-8.7 57.8-24.6 15.5-15.9 24-37 24-59.4v-99l-1.9-4.8zM321.1 316c0-108.1 85.6-196 190.9-196 105.3 0 190.9 87.9 190.9 196S617.3 512 512 512c-105.3 0-190.9-87.9-190.9-196z m545.4 560c0 7.5-2.8 14.5-8 19.8-5.1 5.3-12 8.2-19.3 8.2H184.8c-7.3 0-14.1-2.9-19.3-8.2-5.1-5.3-8-12.3-8-19.8v-88.5c45.9-118.7 144.8-207 265.3-236.7 27.7 11.1 57.7 17.2 89.2 17.2 31.4 0 61.5-6.1 89.1-17.2 119.3 29.5 219.7 118.7 265.4 236.7V876z" p-id="14043" fill="#707070"></path></svg>