<?xml version="1.0" standalone="no"?><!DOCTYPE svg PUBLIC "-//W3C//DTD SVG 1.1//EN" "http://www.w3.org/Graphics/SVG/1.1/DTD/svg11.dtd"><svg t="1547685425383" class="icon" style="" viewBox="0 0 1024 1024" version="1.1" xmlns="http://www.w3.org/2000/svg" p-id="3294" xmlns:xlink="http://www.w3.org/1999/xlink" width="200" height="200"><defs><style type="text/css"></style></defs><path d="M508.5 870.3c-94.6-0.5-183.4-37.5-250.4-104.4-67.4-67.3-104.5-156.8-104.5-252.1 0-78.3 25.2-152.2 72.8-213.7 22.8-29.5 50.1-55.1 81.2-76.3 31.4-21.4 65.8-37.7 102.3-48.4 2-0.6 4.1-0.9 6.3-0.9 6.6 0 12.8 2.9 17.1 8 5.6 6.8 6.7 16.3 2.7 24.2-21.8 42.4-31.9 82.8-31.9 127.1 0 158 128.7 286.6 287 286.6 44.4 0 84.9-10.1 127.3-31.9 3.1-1.6 6.6-2.4 10.1-2.4 5.2 0 10.2 1.8 14.1 5.1 6.8 5.6 9.6 14.8 7.1 23.3-10.8 36.6-27.1 70.9-48.5 102.2-21.2 31-46.9 58.3-76.4 81.1-61.6 47.6-135.6 72.7-214 72.7l-2.3-0.2z m129.4-639.2v-77.5h38.7v77.5h77.5v38.7h-77.5v77.5h-38.7v-77.5h-77.5v-38.7h77.5z m162.8 201.5v-46.5h23.2v46.5h46.5v23.2h-46.5v46.5h-23.2v-46.5h-46.5v-23.2h46.5zM385 223.4c-19.8 8.4-38.8 18.7-56.6 30.9-27.9 19-52.4 42-72.8 68.5-42.6 55-65.1 121-65.1 191.1 0 85.4 33.2 165.6 93.7 226 60.1 60 139.6 93.1 224.6 93.6h6.5c68.6-0.9 133-23.3 186.9-65 26.5-20.4 49.5-44.9 68.5-72.7 12.9-18.8 23.7-38.9 32.4-60-36.6 14.5-73.1 21.4-112.1 21.4-178.5 0-323.8-145-323.8-323.4 0-39 7-75.4 21.4-111.9l-3.6 1.5z" fill="#707070" p-id="3295"></path></svg>