<?xml version="1.0" standalone="no"?><!DOCTYPE svg PUBLIC "-//W3C//DTD SVG 1.1//EN" "http://www.w3.org/Graphics/SVG/1.1/DTD/svg11.dtd"><svg t="1547656532644" class="icon" style="" viewBox="0 0 1059 1024" version="1.1" xmlns="http://www.w3.org/2000/svg" p-id="16376" xmlns:xlink="http://www.w3.org/1999/xlink" width="206.8359375" height="200"><defs><style type="text/css"></style></defs><path d="M721.205359 979.911111l-32.193939-0.258586-358.917172 0.129293c-19.264646 0-41.244444-0.905051-58.181818-11.894949-10.472727-6.593939-24.436364-19.911111-30.771717-36.719192-5.171717-13.834343-5.042424-28.832323-4.783839-43.442424V523.507071c-4.008081 2.327273-8.145455 4.39596-12.412121 6.20606-21.074747 8.791919-49.907071 4.266667-70.723232-10.214141-7.369697-5.171717-12.8-10.860606-17.713132-15.90303l-11.119191-10.860606-38.529293-36.977778c-7.111111-7.111111-14.092929-14.222222-21.074748-21.333334-6.593939-5.559596-12.541414-11.765657-18.488889-17.842424l-6.464646-6.464646c-1.810101-1.810101-3.878788-3.620202-5.818182-5.430303-8.533333-7.757576-19.135354-17.454545-25.858586-32.840404-3.620202-8.145455-10.472727-23.531313-7.369697-40.339394 5.688889-30.513131 24.436364-47.062626 39.434344-60.509091 5.171717-4.654545 8.921212-8.40404 12.541414-12.153536 4.266667-4.266667 8.533333-8.662626 12.929293-12.670707L236.098288 79.90303c8.016162-8.145455 18.747475-19.135354 35.038384-25.470707l25.212122-6.20606s69.688889-4.654545 92.315151 0c8.145455 1.680808 23.40202 9.955556 29.737374 14.997979 9.567677 7.369697 16.290909 16.032323 22.238384 23.789899l1.551515 2.068687c4.783838 6.206061 16.290909 14.092929 26.763636 18.488889 12.412121 5.171717 26.505051 8.40404 43.571717 11.636364l20.428283 1.292929c3.620202 0 8.921212-0.646465 14.99798-1.939394 33.09899-6.723232 46.545455-11.248485 65.680808-26.50505 1.680808-1.422222 4.137374-4.654545 6.593939-7.886869 4.266667-5.818182 9.567677-13.058586 17.583839-18.876768l19.264646-12.412121c4.137374-1.551515 12.541414-4.137374 16.161616-4.783838 7.111111-1.292929 61.672727 0 68.39596 0 24.824242 0 40.339394 2.19798 51.846465 8.274747 12.929293 6.981818 22.367677 16.420202 30.642424 24.69495l159.547475 156.056565c6.464646 6.981818 12.670707 12.670707 18.876767 18.359596 7.369697 6.852525 14.610101 13.575758 21.333334 20.945455 1.680808 1.810101 3.620202 3.749495 5.559596 5.688889 8.791919 8.791919 19.911111 19.652525 26.246464 37.494949l1.422222 6.723233c0.129293 2.327273 0.258586 4.783838 0.258586 7.111111 4.008081 29.220202-12.024242 49.519192-18.10101 57.147474l-2.19798 2.456566-101.365656 98.909091c-13.317172 15.127273-31.676768 35.814141-59.862626 40.985859-22.49697 4.137374-39.951515-1.292929-53.527273-9.438384v292.460606c0 32.581818-0.258586 65.163636-0.387879 97.745454l-0.517172 5.042425c-3.490909 16.937374-13.834343 33.874747-27.022222 43.959596-20.557576 15.90303-48.484848 17.19596-73.179798 17.195959z m-370.294949-50.682828l370.294949 0.387879c10.084848 0 33.874747 0 43.054546-6.981819 2.585859-2.068687 6.076768-7.240404 7.757575-12.153535l0.387879-94.513131V461.963636l32.581818-22.238383 27.410101 26.50505c13.058586 12.8 21.074747 19.652525 34.909091 17.066667 11.119192-2.068687 21.850505-14.222222 31.288889-24.824243l3.10303-3.490909 99.555556-96.969697c5.947475-7.757576 7.628283-12.541414 6.723232-18.359596l-0.387878-3.620202V333.575758c-2.585859-5.171717-6.464646-9.309091-13.058586-15.773738-2.327273-2.327273-4.654545-4.654545-6.981818-7.111111-6.076768-6.593939-12.412121-12.541414-18.876768-18.359596-6.981818-6.593939-14.092929-13.187879-20.557576-20.169697L788.825561 116.622222c-6.464646-6.335354-12.412121-12.412121-18.747475-15.90303-0.646465-0.387879-6.335354-2.715152-28.185858-2.715152-6.335354 0-12.670707 0.129293-18.876768 0.387879-6.076768 0.129293-12.024242 0.258586-17.325252 0.258586H685.520511c-2.973737 0.905051-5.430303 1.292929-7.240404 1.551515l-11.119192 6.206061c-1.680808 1.680808-3.878788 4.654545-6.076768 7.628283-3.878788 5.30101-8.662626 11.894949-15.644444 17.454545-27.280808 21.721212-49.00202 28.832323-87.143435 36.460606-13.834343 2.844444-25.341414 3.749495-34.650505 2.327273l-18.488889-1.163636c-20.945455-3.878788-38.4-7.886869-55.337373-14.99798-14.868687-6.206061-34.909091-18.359596-47.062627-34.004041l-1.680808-2.197979c-4.783838-6.076768-8.791919-11.377778-13.317171-14.868687-1.163636-0.646465-3.10303-1.163636-4.913132-1.810101-2.19798-0.775758-4.39596-1.680808-6.593939-2.585859h-63.870707l-14.99798 1.292929c-10.084848 0.387879-14.99798 4.913131-25.082828 15.256566l-30.90101 30.254545-140.929293 137.567677c-4.525253 4.008081-8.016162 7.628283-11.507071 11.248485-4.525253 4.654545-9.050505 9.179798-13.963636 13.446465-14.868687 13.187879-22.109091 20.169697-24.565657 33.228283 0 1.810101 2.456566 7.240404 3.490909 9.567676 2.844444 6.593939 6.981818 10.60202 14.222222 17.066667 2.456566 2.19798 4.783838 4.39596 7.240404 6.723232l7.111111 7.111111c5.171717 5.30101 10.214141 10.60202 15.903031 15.385859l1.810101 1.680808c6.981818 7.111111 13.963636 14.222222 21.074747 21.333333l50.553536 48.872728c3.749495 3.878788 6.981818 7.240404 10.343434 9.567676 5.042424 3.490909 16.549495 7.369697 22.626263 4.783839 9.438384-3.878788 16.808081-11.377778 25.470707-20.040404 4.266667-4.266667 20.29899-22.109091 20.29899-22.109091l36.20202 20.945454v426.278788c-0.129293 9.438384-0.258586 20.169697 1.551515 25.082829 1.422222 3.620202 6.464646 9.309091 10.731313 12.024242 6.206061 4.008081 24.953535 4.008081 31.030303 4.008081h20.816162z m0 0" fill="#707070" p-id="16377"></path></svg>