<?xml version="1.0" standalone="no"?><!DOCTYPE svg PUBLIC "-//W3C//DTD SVG 1.1//EN" "http://www.w3.org/Graphics/SVG/1.1/DTD/svg11.dtd"><svg t="1547685370426" class="icon" style="" viewBox="0 0 1024 1024" version="1.1" xmlns="http://www.w3.org/2000/svg" p-id="2000" xmlns:xlink="http://www.w3.org/1999/xlink" width="200" height="200"><defs><style type="text/css"></style></defs><path d="M911.2574 547.430638c2.559999-23.654388 2.559999-47.513576 0-71.167964l93.183954-71.219165a49.766375 49.766375 0 0 0 12.287994-65.279967l-99.327951-167.987116a53.964773 53.964773 0 0 0-65.331167-22.169589l-109.414345 42.751979a378.214211 378.214211 0 0 0-62.771169-35.583982L663.705524 43.41809A52.582374 52.582374 0 0 0 611.58395 0.000512H412.56965c-26.214387 0-48.230376 18.124791-52.070374 43.724778l-16.895992 113.663943c-21.657589 9.727995-42.649579 21.862389-62.719968 35.583983l-109.414346-43.059179c-23.603188-8.755196-52.070374 0.9216-64.716767 22.169589L7.065852 340.070742a50.073575 50.073575 0 0 0 12.953594 65.587167l92.876754 70.911965a319.64144 319.64144 0 0 0 0 71.167964L19.456246 619.008202a49.817575 49.817575 0 0 0-12.287994 64.972768l99.635151 167.987116c12.646394 21.247989 40.44798 31.539184 65.023967 21.862389l109.414345-42.751979c20.07039 14.028793 41.113579 25.907187 62.771169 35.583983l16.537592 114.278343c4.198398 24.985588 25.855987 43.110378 52.070374 43.110378h199.0143c25.907187 0 48.230376-18.739191 52.121574-43.724778l16.486392-113.663943c21.708789-9.727995 42.751979-21.555189 62.822368-35.583983l109.670346 43.059179c6.143997 2.201599 12.646394 3.430398 19.09759 3.430398 18.790391 0 36.249582-9.676795 45.619177-25.599987l99.327951-167.987116a50.124775 50.124775 0 0 0-12.595194-65.587167l-92.876754-70.911965z m-35.839982 276.479862l-124.671937-48.435176a29.235185 29.235185 0 0 0-27.903986 3.686398c-24.678388 18.431991-50.943975 33.126383-78.182361 43.878378a26.623987 26.623987 0 0 0-16.998392 21.19679l-18.227191 125.798337-194.559902 2.764799-18.892791-128.563136a27.289586 27.289586 0 0 0-16.947192-21.19679 350.412625 350.412625 0 0 1-78.18236-43.878378 29.695985 29.695985 0 0 0-27.903986-3.686398l-120.47354 49.663975L51.20023 660.736182l105.727948-80.07676a26.623987 26.623987 0 0 0 10.598394-24.575988 333.055833 333.055833 0 0 1-3.225598-43.878378c0-14.745593 1.279999-29.439985 3.225598-43.878378a25.702387 25.702387 0 0 0-10.598394-24.575988L52.22423 367.001928l95.795152-166.911916 124.671938 48.435176a29.235185 29.235185 0 0 0 27.852786-3.686398 353.843023 353.843023 0 0 1 78.54076-44.185578 26.623987 26.623987 0 0 0 16.947192-21.19679l15.718392-125.491137L609.075151 51.200486l18.943991 128.563136a27.289586 27.289586 0 0 0 16.947192 21.19679c27.238386 10.751995 53.555173 25.804787 78.18236 44.185577a29.235185 29.235185 0 0 0 27.903986 3.686399l120.47354-49.663976L972.79977 363.57153l-105.727948 80.07676a26.367987 26.367987 0 0 0-10.598394 24.575988c1.945599 14.438393 3.225598 29.183985 3.225598 43.878378 0 14.745593-1.279999 29.439985-3.225598 43.878378a26.367987 26.367987 0 0 0 10.598394 24.575988l104.755148 76.390362-96.460752 166.911916zM512 307.200358c-113.049543 0-204.799898 92.006354-204.799898 204.799898 0 112.793544 91.750354 204.799898 204.799898 204.799898s204.799898-92.006354 204.799898-204.799898c0-112.793544-91.750354-204.799898-204.799898-204.799898z m0 358.399821c-84.531158 0-153.599923-68.812766-153.599923-153.599923s69.068765-153.599923 153.599923-153.599923 153.599923 68.812766 153.599923 153.599923a153.599923 153.599923 0 0 1-153.599923 153.599923z" p-id="2001" fill="#707070"></path></svg>