<?xml version="1.0" standalone="no"?><!DOCTYPE svg PUBLIC "-//W3C//DTD SVG 1.1//EN" "http://www.w3.org/Graphics/SVG/1.1/DTD/svg11.dtd"><svg t="1547656592474" class="icon" style="" viewBox="0 0 1024 1024" version="1.1" xmlns="http://www.w3.org/2000/svg" p-id="19054" xmlns:xlink="http://www.w3.org/1999/xlink" width="200" height="200"><defs><style type="text/css"></style></defs><path d="M537.6 843.725V972.8h179.2c14.131 0 25.6 11.469 25.6 25.6 0 14.131-11.469 25.6-25.6 25.6H307.2c-14.131 0-25.6-11.469-25.6-25.6 0-14.131 11.469-25.6 25.6-25.6h179.2V843.725C314.803 830.592 179.2 686.874 179.2 512c0-14.131 11.469-25.6 25.6-25.6 14.131 0 25.6 11.469 25.6 25.6 0 155.29 126.31 281.6 281.6 281.6 155.264 0 281.6-126.31 281.6-281.6 0-14.131 11.469-25.6 25.6-25.6 14.131 0 25.6 11.469 25.6 25.6 0 174.874-135.629 318.592-307.2 331.725zM716.8 204.8L715.546 512c0 105.856-97.69 203.827-203.546 203.827S307.763 621.03 307.763 515.174L307.2 204.8C307.2 98.944 406.144 0 512 0c105.856 0 204.8 98.944 204.8 204.8z m-51.2 0c0-77.696-75.904-153.6-153.6-153.6s-153.6 75.904-153.6 153.6l-1.254 308.122c0 77.696 77.158 152.115 154.854 152.115 77.696 0 154.163-75.341 154.163-153.037l-0.563-307.2z" fill="#707070" p-id="19055"></path></svg>