<?xml version="1.0" standalone="no"?><!DOCTYPE svg PUBLIC "-//W3C//DTD SVG 1.1//EN" "http://www.w3.org/Graphics/SVG/1.1/DTD/svg11.dtd"><svg t="1547656494799" class="icon" style="" viewBox="0 0 1024 1024" version="1.1" xmlns="http://www.w3.org/2000/svg" p-id="15515" xmlns:xlink="http://www.w3.org/1999/xlink" width="200" height="200"><defs><style type="text/css"></style></defs><path d="M512.3 63.9c-164.9 0-298.5 133.6-298.5 298.5 0 138.4 210.4 484.7 277.9 586 4.9 7.4 12.7 11 20.6 11 7.8 0 15.7-3.7 20.6-11 67.5-101.3 277.9-447.5 277.9-586 0-164.9-133.7-298.5-298.5-298.5z m0 847.8c-89-136.6-261.2-436-261.2-549.4 0-144 117.2-261.2 261.2-261.2s261.2 117.2 261.2 261.2c0 113.4-172.2 412.9-261.2 549.4z" fill="#707070" p-id="15516"></path><path d="M512.3 194.5c-72.1 0-130.6 58.5-130.6 130.6s58.5 130.6 130.6 130.6 130.6-58.5 130.6-130.6c0-72.2-58.5-130.6-130.6-130.6z m0 223.8c-51.4 0-93.3-41.8-93.3-93.3s41.8-93.3 93.3-93.3c51.4 0 93.3 41.8 93.3 93.3s-41.9 93.3-93.3 93.3z" fill="#707070" p-id="15517"></path></svg>