<?xml version="1.0" standalone="no"?><!DOCTYPE svg PUBLIC "-//W3C//DTD SVG 1.1//EN" "http://www.w3.org/Graphics/SVG/1.1/DTD/svg11.dtd"><svg t="1547608842886" class="icon" style="" viewBox="0 0 1024 1024" version="1.1" xmlns="http://www.w3.org/2000/svg" p-id="6811" xmlns:xlink="http://www.w3.org/1999/xlink" width="200" height="200"><defs><style type="text/css"></style></defs><path d="M870.71436 223.731574l-717.429743 0c-11.30344 0-20.466124-9.162684-20.466124-20.466124 0-11.30344 9.162684-20.466124 20.466124-20.466124l717.429743 0c11.30344 0 20.466124 9.162684 20.466124 20.466124C891.180484 214.56889 882.0178 223.731574 870.71436 223.731574z" p-id="6812" fill="#707070"></path><path d="M870.71436 515.752464l-717.429743 0c-11.30344 0-20.466124-9.162684-20.466124-20.466124s9.162684-20.466124 20.466124-20.466124l717.429743 0c11.30344 0 20.466124 9.162684 20.466124 20.466124S882.0178 515.752464 870.71436 515.752464z" p-id="6813" fill="#707070"></path><path d="M870.71436 807.773354l-717.429743 0c-11.30344 0-20.466124-9.162684-20.466124-20.466124s9.162684-20.466124 20.466124-20.466124l717.429743 0c11.30344 0 20.466124 9.162684 20.466124 20.466124S882.0178 807.773354 870.71436 807.773354z" p-id="6814" fill="#707070"></path></svg>