<?xml version="1.0" standalone="no"?><!DOCTYPE svg PUBLIC "-//W3C//DTD SVG 1.1//EN" "http://www.w3.org/Graphics/SVG/1.1/DTD/svg11.dtd"><svg t="1547609071115" class="icon" style="" viewBox="0 0 1024 1024" version="1.1" xmlns="http://www.w3.org/2000/svg" p-id="7596" xmlns:xlink="http://www.w3.org/1999/xlink" width="200" height="200"><defs><style type="text/css"></style></defs><path d="M512 65C265.146 65 65 265.146 65 512c0 246.839 200.146 447 447 447 246.869 0 447-200.161 447-447 0-246.854-200.131-447-447-447z m0 864.199C281.952 929.199 94.8 742.048 94.8 512S281.952 94.8 512 94.8 929.2 281.952 929.2 512 742.048 929.199 512 929.199z" p-id="7597" fill="#ff3419"></path><path d="M426.15 720.6l290.9-208.615-290.9-208.586V720.6z m29.801-359.157l209.967 150.542-209.967 150.572V361.443z" p-id="7598" fill="#ff3419"></path></svg>