<?xml version="1.0" standalone="no"?><!DOCTYPE svg PUBLIC "-//W3C//DTD SVG 1.1//EN" "http://www.w3.org/Graphics/SVG/1.1/DTD/svg11.dtd"><svg t="1547520270242" class="icon" style="" viewBox="0 0 1024 1024" version="1.1" xmlns="http://www.w3.org/2000/svg" p-id="6896" xmlns:xlink="http://www.w3.org/1999/xlink" width="200" height="200"><defs><style type="text/css"></style></defs><path d="M897.427 249.003H126.572c-34.674 0-62.732-28.089-62.732-62.732s28.058-62.731 62.732-62.731h770.855c34.674 0 62.732 28.088 62.732 62.731s-28.057 62.732-62.732 62.732z m0 325.729H126.572c-34.674 0-62.732-28.089-62.732-62.732s28.058-62.732 62.732-62.732h770.855c34.674 0 62.732 28.089 62.732 62.732s-28.057 62.732-62.732 62.732z m0 325.728H126.572c-34.674 0-62.732-28.088-62.732-62.731s28.058-62.732 62.732-62.732h770.855c34.674 0 62.732 28.089 62.732 62.732 0.001 34.643-28.057 62.731-62.732 62.731z" fill="#ffffff" p-id="6897"></path></svg>