<?xml version="1.0" standalone="no"?><!DOCTYPE svg PUBLIC "-//W3C//DTD SVG 1.1//EN" "http://www.w3.org/Graphics/SVG/1.1/DTD/svg11.dtd"><svg t="1547522919627" class="icon" style="" viewBox="0 0 1024 1024" version="1.1" xmlns="http://www.w3.org/2000/svg" p-id="1129" xmlns:xlink="http://www.w3.org/1999/xlink" width="200" height="200"><defs><style type="text/css"></style></defs><path d="M837.063111 788.906667l176.952889 176.952889a34.048 34.048 0 0 1-48.156444 48.156444l-176.952889-176.924444A474.88 474.88 0 0 1 476.728889 953.457778C213.447111 953.457778 0 740.039111 0 476.728889 0 213.418667 213.447111 0 476.728889 0c263.310222 0 476.728889 213.447111 476.728889 476.728889 0 119.409778-43.861333 228.551111-116.394667 312.177778zM476.728889 885.361778c225.678222 0 408.632889-182.954667 408.632889-408.632889 0-225.678222-182.954667-408.632889-408.632889-408.632889-225.678222 0-408.632889 182.954667-408.632889 408.632889 0 225.678222 182.954667 408.632889 408.632889 408.632889z" p-id="1130" fill="#ffffff"></path></svg>