<?xml version="1.0" standalone="no"?><!DOCTYPE svg PUBLIC "-//W3C//DTD SVG 1.1//EN" "http://www.w3.org/Graphics/SVG/1.1/DTD/svg11.dtd"><svg t="1547534542462" class="icon" style="" viewBox="0 0 1024 1024" version="1.1" xmlns="http://www.w3.org/2000/svg" p-id="4901" xmlns:xlink="http://www.w3.org/1999/xlink" width="200" height="200"><defs><style type="text/css"></style></defs><path d="M1000.906781 937.24628l-183.905261-181.53061c27.328688-33.399283 49.511685-70.233921 66.409519-110.235985 23.629075-55.974996 33.002896-115.517477 33.002896-176.777635 0-61.256487-10.691441-120.798968-34.324186-176.773964-22.839971-54.12886-54.260989-102.715642-95.977061-144.299584-41.723412-41.719742-90.306523-74.46205-144.303254-97.298351C585.834437 26.690065 526.291957 14.681004 465.031799 14.681004c-61.256487 0-120.798968 12.012731-176.773964 35.645476-54.12886 22.839971-102.715642 55.58228-144.299584 97.298352C102.238509 189.348244 69.496201 237.931355 46.6599 291.931756 23.019814 347.903082 11.010753 407.445563 11.010753 468.70205s12.012731 120.802638 35.645476 176.777635c22.839971 54.12886 55.58228 102.711971 97.298352 144.299584 41.719742 41.719742 90.302853 74.46205 144.303254 97.298351 55.974996 23.636416 115.517477 33.006566 176.773964 33.006566s120.802638-9.373821 176.777635-33.002896a453.107154 453.107154 0 0 0 118.688573-73.537147l183.641004 181.266352a40.402122 40.402122 0 0 0 28.38572 11.616344c10.427183 0 20.858036-3.963871 28.778437-12.012731 15.708674-15.844473 15.580215-41.455484-0.396387-57.167828z m-535.874982-97.958997c-99.676674 0-193.411211-36.173993-263.90939-106.672172-70.501849-70.501849-109.314753-164.236387-109.314753-263.913061 0-99.676674 38.812903-193.411211 109.314753-263.909391 70.498179-70.501849 164.232717-109.314753 263.90939-109.314752S658.443011 134.29448 728.94853 204.792659c70.498179 70.498179 106.672172 164.232717 106.672173 263.909391s-36.173993 193.411211-106.672173 263.913061c-70.501849 70.498179-164.236387 106.672172-263.91306 106.672172z" p-id="4902" fill="#8a8a8a"></path></svg>