<?xml version="1.0" standalone="no"?><!DOCTYPE svg PUBLIC "-//W3C//DTD SVG 1.1//EN" "http://www.w3.org/Graphics/SVG/1.1/DTD/svg11.dtd"><svg t="1547623090000" class="icon" style="" viewBox="0 0 1024 1024" version="1.1" xmlns="http://www.w3.org/2000/svg" p-id="8752" xmlns:xlink="http://www.w3.org/1999/xlink" width="200" height="200"><defs><style type="text/css"></style></defs><path d="M822.9 509.3H595.2c-11 0-20-9-20-20.2 0-11 9-20.2 20-20.2h227.9c11 0 20 9.2 20 20.2-0.1 11.2-9.1 20.2-20.2 20.2zM769.2 624.3h-174c-11 0-20-9-20-20.2 0-11 9-20.3 20-20.3h173.9c11 0 20 9.2 20 20.3-0.1 11.2-8.9 20.2-19.9 20.2zM812.1 739.3H595.2c-11 0-20-9-20-20.2 0-11 9-20.3 20-20.3h216.9c11 0 20 9.2 20 20.3 0.1 11.2-8.9 20.2-20 20.2zM184.2 557zM477.6 552.1c-3.4-46.8-43-83.5-89.8-83.5-20.9 0-40.9 7.2-56.9 20.2-16-13-36-20.2-56.9-20.2-46.6 0-85 34.9-89.5 80.1-0.5 3.2-0.5 8.1-0.5 8.1 0 0.9 0.5 13.3 1.6 19.3 15.1 91.8 126.9 146.2 145.3 146.2 18.2 0 129.8-54.4 144.9-144.9 1.4-6.3 2-12.6 2-18.9 0.2-0.6 0.2-4.6-0.2-6.4z m-27.7 14.8c-12.1 71.8-98.8 117.4-119 125.8-20.2-8.1-107.1-54.2-119.2-127.1-0.5-2.3-0.9-10.3-1.1-13.3 0-0.2 0-1.6 0.2-3.6 2.9-28.8 26.8-50.6 55.8-50.6 16 0 31.3 7 41.8 18.9 5.6 6.3 13.7 9.9 22.3 9.9 8.5 0 16.6-3.6 22.3-9.9 10.6-11.9 25.9-18.9 41.8-18.9 29.2 0 53.8 22.7 56 53.1 0.2 1.1 0 2.7 0 2.9 0.7 3.8 0.2 7.9-0.9 12.8z" fill="#ffffff" p-id="8753"></path><path d="M897.2 239.6H225.3L402 137c8.1-4.7 10.8-15.1 6.1-23-4.7-8.1-15.1-10.8-22.9-6.1L157.8 239.6H127c-35.8 0-65 29.2-65 65.2v548.3c0 9 1.8 17.5 5.2 25.4 9.9 23.4 33.1 39.8 59.8 39.8h770c31.5 0 57.6-22.5 63.7-52.2 0.9-4.3 1.3-8.5 1.3-13V304.8c0.2-36-29-65.2-64.8-65.2z m24.5 192.8v420.7c0 1.8-0.2 3.4-0.5 5-2.3 11.3-12.4 19.8-24.1 19.8H127.2c-11.9 0-21.8-8.5-24.1-19.8-0.2-1.6-0.5-3.4-0.5-5V304.8c0-13.7 11-25 24.7-25h769.9c13.5 0 24.7 11.3 24.7 25v127.6h-0.2z" fill="#ffffff" p-id="8754"></path><path d="M266.7 498.3c-29 0-53.1 21.8-55.8 50.6-0.2 2-0.2 3.4-0.2 3.6 0 2.9 0.7 11 1.1 13.3 12.1 72.9 99 119 119.2 127.1 20.2-8.1 106.9-54 119-125.8 1.1-5 1.4-8.8 1.4-12.8v-2.9c-2.3-30.4-26.8-53.1-56-53.1-16 0-31.3 7-41.8 18.9-5.6 6.3-13.7 9.9-22.3 9.9-8.5 0-16.6-3.6-22.3-9.9-11-11.9-26.3-18.9-42.3-18.9z" fill="#ffffff" p-id="8755"></path></svg>