<?xml version="1.0" standalone="no"?><!DOCTYPE svg PUBLIC "-//W3C//DTD SVG 1.1//EN" "http://www.w3.org/Graphics/SVG/1.1/DTD/svg11.dtd"><svg t="1547624046193" class="icon" style="" viewBox="0 0 1041 1024" version="1.1" xmlns="http://www.w3.org/2000/svg" p-id="17988" xmlns:xlink="http://www.w3.org/1999/xlink" width="203.3203125" height="200"><defs><style type="text/css"></style></defs><path d="M932.977778 81.269841h-188.546032V32.507937a32.507937 32.507937 0 0 0-65.015873 0v48.761904H362.138413V32.507937a32.507937 32.507937 0 0 0-32.507937-32.507937 32.507937 32.507937 0 0 0-32.507936 32.507937v48.761904h-188.546032A108.576508 108.576508 0 0 0 0 189.846349v725.577143a108.576508 108.576508 0 0 0 108.576508 108.576508h824.40127A108.576508 108.576508 0 0 0 1040.253968 915.423492V189.846349a108.576508 108.576508 0 0 0-107.27619-108.576508z m-824.40127 65.015873h188.546032V195.047619a32.507937 32.507937 0 0 0 32.507936 32.507937 32.507937 32.507937 0 0 0 32.507937-32.507937v-48.761905h317.27746V195.047619a32.507937 32.507937 0 0 0 65.015873 0v-48.761905h188.546032a43.560635 43.560635 0 0 1 43.560635 43.560635v108.576508H65.015873V189.846349a43.560635 43.560635 0 0 1 43.560635-43.560635z m824.40127 812.698413H108.576508a43.560635 43.560635 0 0 1-43.560635-43.560635V363.43873h910.222222v551.984762a43.560635 43.560635 0 0 1-42.260317 43.560635z" p-id="17989" fill="#ffffff"></path><path d="M460.96254 581.892063l-1.300318 8.452064 9.102222 28.606984h8.452064l42.260317-17.554286h1.300318v205.450159h63.715555V533.130159h-47.461587l-76.068571 48.761904z" p-id="17990" fill="#ffffff"></path></svg>