<?xml version="1.0" standalone="no"?><!DOCTYPE svg PUBLIC "-//W3C//DTD SVG 1.1//EN" "http://www.w3.org/Graphics/SVG/1.1/DTD/svg11.dtd"><svg t="1547556541244" class="icon" style="" viewBox="0 0 1024 1024" version="1.1" xmlns="http://www.w3.org/2000/svg" p-id="2392" xmlns:xlink="http://www.w3.org/1999/xlink" width="200" height="200"><defs><style type="text/css"></style></defs><path d="M464.298667 547.114667L414.208 497.066667a42.624 42.624 0 0 0-60.373333 60.330666l80.213333 80.213334c7.68 7.68 17.578667 11.818667 27.605333 12.416a42.24 42.24 0 0 0 32.810667-12.373334l180.864-180.821333a42.752 42.752 0 0 0-0.170667-60.202667 42.453333 42.453333 0 0 0-60.16-0.128l-150.698666 150.656zM128 512a384 384 0 1 0 768 0 384 384 0 0 0-768 0z m384-298.666667a298.666667 298.666667 0 1 1-298.666667 298.666667 298.965333 298.965333 0 0 1 298.666667-298.666667z" fill="#1296db" p-id="2393"></path></svg>