<?xml version="1.0" standalone="no"?><!DOCTYPE svg PUBLIC "-//W3C//DTD SVG 1.1//EN" "http://www.w3.org/Graphics/SVG/1.1/DTD/svg11.dtd"><svg t="1547555906388" class="icon" style="" viewBox="0 0 1170 1024" version="1.1" xmlns="http://www.w3.org/2000/svg" p-id="1946" xmlns:xlink="http://www.w3.org/1999/xlink" width="228.515625" height="200"><defs><style type="text/css"></style></defs><path d="M585.142857 1024l-16.603428-7.533714c-5.12-2.486857-130.194286-59.830857-256.585143-165.302857-75.117714-62.756571-135.314286-129.462857-178.468572-198.509715C77.824 564.297143 49.590857 471.990857 49.590857 378.514286c0-72.118857 17.261714-139.264 50.029714-194.121143A296.228571 296.228571 0 0 1 231.497143 64.877714 303.835429 303.835429 0 0 1 418.157714 45.348571C475.648 57.051429 532.772571 84.260571 585.142857 125.074286 637.366857 84.260571 694.491429 57.051429 751.981714 45.348571c64.950857-13.165714 129.536-6.509714 186.660572 19.529143a295.570286 295.570286 0 0 1 131.803428 119.515429c32.768 54.857143 50.029714 122.148571 50.029715 194.121143 0 93.549714-28.16 185.782857-83.602286 274.139428-43.446857 69.046857-103.424 135.753143-178.614857 198.509715a1255.497143 1255.497143 0 0 1-256.438857 165.302857L585.216 1024zM353.938286 120.685714c-30.866286 0-60.928 6.363429-88.941715 19.017143-83.894857 38.107429-134.070857 127.414857-134.070857 238.811429 0 77.312 23.771429 154.624 70.582857 229.229714 38.546286 61.586286 92.672 121.782857 160.768 178.907429a1227.410286 1227.410286 0 0 0 223.012572 146.797714c37.156571-18.797714 130.706286-69.558857 222.939428-146.797714 68.169143-57.051429 122.368-117.321143 160.768-178.907429 46.811429-74.752 70.582857-151.917714 70.582858-229.229714 0-111.396571-50.102857-200.557714-133.997715-238.665143-89.965714-40.813714-199.68-14.994286-293.376 69.266286L585.142857 233.325714l-27.062857-24.283428c-64.365714-57.782857-136.411429-88.210286-204.288-88.210286z" p-id="1947" fill="#ffffff"></path></svg>